<?xml version="1.0" encoding="utf-8"?>
<!-- Generator: Adobe Illustrator 16.0.0, SVG Export Plug-In . SVG Version: 6.00 Build 0)  -->
<!DOCTYPE svg PUBLIC "-//W3C//DTD SVG 1.1//EN" "http://www.w3.org/Graphics/SVG/1.1/DTD/svg11.dtd">
<svg version="1.1" id="Capa_1" xmlns="http://www.w3.org/2000/svg" xmlns:xlink="http://www.w3.org/1999/xlink" x="0px" y="0px"
	 width="734.4px" height="734.4px" viewBox="0 0 734.4 734.4" style="enable-background:new 0 0 734.4 734.4;" xml:space="preserve"
	>
<ellipse style="fill:#FE441A;" cx="367.2" cy="367.2" rx="363.4" ry="363.4"/>
<radialGradient id="SVGID_1_" cx="367.1973" cy="367.1934" r="319.3389" gradientUnits="userSpaceOnUse">
	<stop  offset="0" style="stop-color:#501415"/>
	<stop  offset="1" style="stop-color:#1A140F"/>
</radialGradient>
<path style="fill:url(#SVGID_1_);" d="M686.5,367.2c0,176.4-143,319.3-319.3,319.3c-176.4,0-319.3-143-319.3-319.3
	s143-319.3,319.3-319.3C543.6,47.9,686.5,190.8,686.5,367.2z"/>
<polygon style="fill:#FE441A;" points="390.8,208.2 322.5,208.2 215.9,208.2 215.9,520.6 278.1,520.6 278.1,394.7 387.3,394.7 
	387.3,343.1 275.9,344.2 275.9,257.4 322.5,257.4 390.8,257.4 404.8,257.4 404.8,208.2 "/>
<path style="fill:#FE441A;" d="M438.8,208.2v2.1v284.6c0,0,9.1,30.3,27.3,31.1c18.2,0.8,52.3,0,52.3,0v-45.5h-22.2V208.2"/>
</svg>
