<?xml version="1.0" encoding="utf-8"?>
<!-- Generator: Adobe Illustrator 16.0.0, SVG Export Plug-In . SVG Version: 6.00 Build 0)  -->
<!DOCTYPE svg PUBLIC "-//W3C//DTD SVG 1.1//EN" "http://www.w3.org/Graphics/SVG/1.1/DTD/svg11.dtd">
<svg version="1.1" id="Capa_1" xmlns="http://www.w3.org/2000/svg" xmlns:xlink="http://www.w3.org/1999/xlink" x="0px" y="0px"
	 width="734.4px" height="734.4px" viewBox="0 0 734.4 734.4" style="enable-background:new 0 0 734.4 734.4;" xml:space="preserve"
	>
<g>
	
		<image style="overflow:visible;opacity:0.75;" width="744" height="744" xlink:href="ECBB931D6ABC5A79.png"  transform="matrix(1 0 0 1 -3.5566 -4.1494)">
	</image>
	<g>
		<path style="fill:#FF3A93;" d="M732.8,365.6c0,201.9-163.6,365.5-365.5,365.5C165.3,731.1,1.6,567.5,1.6,365.6S165.3,0,367.2,0
			C569.1,0,732.8,163.7,732.8,365.6z"/>
	</g>
</g>
<g>
	<g>
		<radialGradient id="SVGID_1_" cx="367.1973" cy="365.5659" r="321.239" gradientUnits="userSpaceOnUse">
			<stop  offset="0" style="stop-color:#553C6E"/>
			<stop  offset="1" style="stop-color:#1A140F"/>
		</radialGradient>
		<path style="fill:url(#SVGID_1_);" d="M688.4,365.6c0,177.4-143.8,321.2-321.2,321.2S46,543,46,365.6S189.8,44.3,367.2,44.3
			S688.4,188.2,688.4,365.6z"/>
	</g>
	<defs>
		<filter id="Adobe_OpacityMaskFilter" filterUnits="userSpaceOnUse" x="46" y="44.3" width="642.5" height="642.5">
			
				<feColorMatrix  type="matrix" values="-1 0 0 0 1  0 -1 0 0 1  0 0 -1 0 1  0 0 0 1 0" color-interpolation-filters="sRGB" result="source"/>
		</filter>
	</defs>
	<mask maskUnits="userSpaceOnUse" x="46" y="44.3" width="642.5" height="642.5" id="SVGID_2_">
		<g style="filter:url(#Adobe_OpacityMaskFilter);">
			
				<image style="overflow:visible;" width="647" height="647" xlink:href="ECBB931D6ABC5A7F.jpg"  transform="matrix(1 0 0 1 43.4434 41.8506)">
			</image>
		</g>
	</mask>
	<g style="opacity:0.61;mask:url(#SVGID_2_);">
		<path style="fill:#010002;" d="M688.4,365.6c0,177.4-143.8,321.2-321.2,321.2S46,543,46,365.6S189.8,44.3,367.2,44.3
			S688.4,188.2,688.4,365.6z"/>
	</g>
</g>
<g>
	<g>
		<path style="fill:#252223;" d="M216.5,526.5V188.1h57.5v338.4H216.5z"/>
		<path style="fill:#252223;" d="M482.7,526.5v-15c-4.6,5.2-12.3,9.8-23.2,13.7c-10.9,3.9-22.2,5.9-33.8,5.9
			c-33,0-59-10.9-77.9-32.8c-18.9-21.9-28.4-52.4-28.4-91.5c0-39.1,10.9-71,32.6-95.5c21.7-24.6,49-36.8,81.7-36.8
			c18,0,34.3,3.9,49.1,11.6v-97.9h55.3v338.4H482.7z M482.7,338.2c-11.8-9.9-24.1-14.8-36.9-14.8c-22.1,0-39.1,7-51.1,21.1
			s-17.9,34.3-17.9,60.6c0,51.4,23.7,77.2,71.2,77.2c5.3,0,11.8-1.7,19.6-5c7.7-3.3,12.8-6.7,15.1-10V338.2z"/>
	</g>
	<g>
		<path style="fill:#FF3A93;" d="M216.5,526.5V188.1h57.5v338.4H216.5z"/>
		<path style="fill:#FF3A93;" d="M482.7,526.5v-15c-4.6,5.2-12.3,9.8-23.2,13.7c-10.9,3.9-22.2,5.9-33.8,5.9
			c-33,0-59-10.9-77.9-32.8c-18.9-21.9-28.4-52.4-28.4-91.5c0-39.1,10.9-71,32.6-95.5c21.7-24.6,49-36.8,81.7-36.8
			c18,0,34.3,3.9,49.1,11.6v-97.9h55.3v338.4H482.7z M482.7,338.2c-11.8-9.9-24.1-14.8-36.9-14.8c-22.1,0-39.1,7-51.1,21.1
			s-17.9,34.3-17.9,60.6c0,51.4,23.7,77.2,71.2,77.2c5.3,0,11.8-1.7,19.6-5c7.7-3.3,12.8-6.7,15.1-10V338.2z"/>
	</g>
</g>
</svg>
