<?xml version="1.0" encoding="utf-8"?>
<!-- Generator: Adobe Illustrator 16.0.0, SVG Export Plug-In . SVG Version: 6.00 Build 0)  -->
<!DOCTYPE svg PUBLIC "-//W3C//DTD SVG 1.1//EN" "http://www.w3.org/Graphics/SVG/1.1/DTD/svg11.dtd" [
	<!ENTITY ns_flows "http://ns.adobe.com/Flows/1.0/">
	<!ENTITY ns_extend "http://ns.adobe.com/Extensibility/1.0/">
	<!ENTITY ns_ai "http://ns.adobe.com/AdobeIllustrator/10.0/">
	<!ENTITY ns_graphs "http://ns.adobe.com/Graphs/1.0/">
]>
<svg version="1.1" id="Capa_1" xmlns:x="&ns_extend;" xmlns:i="&ns_ai;" xmlns:graph="&ns_graphs;"
	 xmlns="http://www.w3.org/2000/svg" xmlns:xlink="http://www.w3.org/1999/xlink" xmlns:a="http://ns.adobe.com/AdobeSVGViewerExtensions/3.0/"
	 x="0px" y="0px" width="686px" height="768px" viewBox="168.5 0 686 768" style="enable-background:new 168.5 0 686 768;"
	 xml:space="preserve">
<polygon fill="#E4A227" points="235.039,691.231 173.41,0 850.59,0 788.898,691.12 511.586,768 "/>
<polygon fill="#F0BF26" points="511.431,708.381 735.514,646.259 788.236,55.666 511.431,55.666 "/>
<polygon fill="#EBEBEB" points="511.302,532.259 510.933,532.365 416.516,506.87 410.478,439.258 364.603,439.258 325.38,439.258 
	337.256,572.366 510.911,620.576 511.302,620.465 "/>
<polygon fill="#EBEBEB" points="522.721,396.825 522.721,312.051 418.33,312.051 430.571,179.001 522.957,176.541 522.721,88.383 
	353.924,88.383 347.653,150.874 327.728,374.062 325.662,396.825 348.506,396.825 "/>
<polygon fill="#FFFFFF" points="522.147,176.659 522.519,176.554 615.11,182.129 622.968,269.658 668.843,269.658 708.069,269.658 
	693.241,105.865 522.539,88.344 522.147,88.453 "/>
<polyline fill="#FFFFFF" points="699.33,176.917 692.064,88.383 513.116,88.383 513.116,143.368 513.116,176.697 513.116,176.917 
	699.33,176.917 "/>
<polygon fill="#FFFFFF" points="511.009,312.092 511.009,396.865 615.399,396.865 605.56,506.812 511.009,532.335 511.009,620.536 
	684.806,572.366 686.077,558.045 706.002,334.855 708.069,312.092 685.224,312.092 "/>
<path fill="#FFFFFF" d="M688.438,173.162"/>
</svg>
