<?xml version="1.0" encoding="utf-8"?>
<!-- Generator: Adobe Illustrator 16.0.0, SVG Export Plug-In . SVG Version: 6.00 Build 0)  -->
<!DOCTYPE svg PUBLIC "-//W3C//DTD SVG 1.1//EN" "http://www.w3.org/Graphics/SVG/1.1/DTD/svg11.dtd" [
	<!ENTITY ns_flows "http://ns.adobe.com/Flows/1.0/">
	<!ENTITY ns_extend "http://ns.adobe.com/Extensibility/1.0/">
	<!ENTITY ns_ai "http://ns.adobe.com/AdobeIllustrator/10.0/">
	<!ENTITY ns_graphs "http://ns.adobe.com/Graphs/1.0/">
]>
<svg version="1.1" id="Capa_1" xmlns:x="&ns_extend;" xmlns:i="&ns_ai;" xmlns:graph="&ns_graphs;"
	 xmlns="http://www.w3.org/2000/svg" xmlns:xlink="http://www.w3.org/1999/xlink" xmlns:a="http://ns.adobe.com/AdobeSVGViewerExtensions/3.0/"
	 x="0px" y="0px" width="767.921px" height="768px" viewBox="127.579 0 767.921 768" enable-background="new 127.579 0 767.921 768"
	 xml:space="preserve">
<path fill="#21759b" d="M359.885,209.959v19.199c0,1.762-1.377,3.2-3.06,3.2h-37.14c-4.15,0-5.9,2.507-4.443,6.799l116.48,343.123
	l70.876-213.984l-47.121-128.849c-1.71-4.674-3.74-7.089-10.99-7.089h-32.593c-1.685,0-3.062-1.441-3.062-3.2v-19.2
	c0-1.759,1.38-3.273,3.062-3.198c60.653,2.702,121.679,2.684,183.066,0c1.683-0.074,3.062,1.438,3.062,3.198v19.2
	c0,1.761-1.377,3.2-3.062,3.2h-32.415c-6.426,0-8.496,2.97-6.722,8.198l114.663,337.755l42.1-128.146
	c50.9-154.929-43.55-171.324-41.203-248.352c1.162-38.101,29.091-54.732,57.073-53.991C671.35,95.33,595.169,63.268,511.502,63.268
	v0.001c-112.807,0-212.016,58.275-269.192,146.351c36.436-0.375,75.55-0.791,114.516-2.86
	C358.504,206.671,359.885,208.198,359.885,209.959z"/>
<path fill="#21759b" d="M418.226,690.929c29.521,8.963,60.831,13.803,93.274,13.803c37.669,0,73.811-6.52,107.387-18.456
	L517.034,407.771L418.226,690.929z"/>
<path fill="#21759b" d="M190.769,383.999c0,128,75.032,238.497,183.495,289.937L219.587,250.992
	C201.09,291.514,190.769,336.554,190.769,383.999z"/>
<path fill="#21759b" d="M511.5,11c-205.967,0-373,167.033-373,373c0,205.967,167.033,373,373,373c205.967,0,373-167.033,373-373
	C884.5,178.033,717.467,11,511.5,11z M511.5,734.824c-193.72,0-350.826-157.104-350.826-350.825
	c0-193.721,157.105-350.825,350.826-350.825c193.723,0,350.826,157.104,350.826,350.825
	C862.326,577.721,705.223,734.824,511.5,734.824z"/>
<path fill="#21759b" d="M793.593,231.28c1.759,47.715-12.626,106.97-28.114,150.822L665.432,665.415
	c99.392-54.492,166.802-160.095,166.802-281.417C832.233,328.714,818.237,276.688,793.593,231.28z"/>
</svg>
