<?xml version="1.0" encoding="utf-8"?>
<!-- Generator: Adobe Illustrator 16.0.0, SVG Export Plug-In . SVG Version: 6.00 Build 0)  -->
<!DOCTYPE svg PUBLIC "-//W3C//DTD SVG 1.1//EN" "http://www.w3.org/Graphics/SVG/1.1/DTD/svg11.dtd">
<svg version="1.1" id="Capa_1" xmlns="http://www.w3.org/2000/svg" xmlns:xlink="http://www.w3.org/1999/xlink" x="0px" y="0px"
	 width="734.4px" height="734.4px" viewBox="0 0 734.4 734.4" style="enable-background:new 0 0 734.4 734.4;" xml:space="preserve"
	>
<g>
	
		<image style="overflow:visible;opacity:0.75;" width="742" height="742" xlink:href="C5346190F140C293.png"  transform="matrix(1 0 0 1 -2.5566 -2.1494)">
	</image>
	<g>
		<path style="fill:#71F900;" d="M731.5,366.8c0,201.2-163.1,364.3-364.3,364.3C166,731.1,2.9,568,2.9,366.8
			C2.9,165.6,166,2.5,367.2,2.5C568.4,2.5,731.5,165.6,731.5,366.8z"/>
	</g>
</g>
<g>
	<g>
		<radialGradient id="SVGID_1_" cx="367.1982" cy="366.811" r="320.1252" gradientUnits="userSpaceOnUse">
			<stop  offset="0" style="stop-color:#3D6E30"/>
			<stop  offset="1" style="stop-color:#0E0C1A"/>
		</radialGradient>
		<path style="fill:url(#SVGID_1_);" d="M687.3,366.8c0,176.8-143.3,320.1-320.1,320.1c-176.8,0-320.1-143.3-320.1-320.1
			C47.1,190,190.4,46.7,367.2,46.7C544,46.7,687.3,190,687.3,366.8z"/>
	</g>
	<defs>
		<filter id="Adobe_OpacityMaskFilter" filterUnits="userSpaceOnUse" x="47.1" y="46.7" width="640.3" height="640.2">
			
				<feColorMatrix  type="matrix" values="-1 0 0 0 1  0 -1 0 0 1  0 0 -1 0 1  0 0 0 1 0" color-interpolation-filters="sRGB" result="source"/>
		</filter>
	</defs>
	<mask maskUnits="userSpaceOnUse" x="47.1" y="46.7" width="640.3" height="640.2" id="SVGID_2_">
		<g style="filter:url(#Adobe_OpacityMaskFilter);">
			
				<image style="overflow:visible;" width="645" height="646" xlink:href="C5346190F140C291.jpg"  transform="matrix(1 0 0 1 44.4434 43.8506)">
			</image>
		</g>
	</mask>
	<g style="opacity:0.61;mask:url(#SVGID_2_);">
		<path style="fill:#010002;" d="M687.3,366.8c0,176.8-143.3,320.1-320.1,320.1c-176.8,0-320.1-143.3-320.1-320.1
			C47.1,190,190.4,46.7,367.2,46.7C544,46.7,687.3,190,687.3,366.8z"/>
	</g>
</g>
<path style="fill:#71F900;" d="M149.6,224.5c19.4-3.7,44.1-5.8,70.3-5.8c45.2,0,76.4,10.7,98.6,32.1c23.3,21.8,37.7,54.7,37.7,101.9
	c0,49.3-14.7,86.3-37.7,110.1c-24,25.1-62.4,37.8-109.4,37.8c-25.8,0-45.2-1.6-59.6-3.7V224.5z M193.8,459.1
	c6.1,1.2,15.4,1.2,24.4,1.2c57.4,0.4,91.5-35.8,91.5-106c0.4-61.2-30.5-96.2-85.7-96.2c-14,0-24,1.2-30.1,2.9V459.1z"/>
<path style="fill:#71F900;" d="M405,297.6l17.7,90.8c3.8,21.4,7.6,43.1,10.8,64.9h0.7c3.5-21.8,9-44,13.9-64.5l21.9-91.2h34.8
	l21.2,88.8c5.2,23.4,9.8,45.2,13.6,67h0.7c2.8-21.8,6.6-43.6,11.1-67l18.8-88.8h42.1l-53.2,200.1h-39.6l-20.2-81.4
	c-5.2-21-9-39.9-12.8-64.1h-0.7c-3.5,24.7-8,44.4-12.9,64.1l-21.6,81.4h-40l-50.1-200.1H405z"/>
</svg>
