<?xml version="1.0" encoding="utf-8"?>
<!-- Generator: Adobe Illustrator 16.0.0, SVG Export Plug-In . SVG Version: 6.00 Build 0)  -->
<!DOCTYPE svg PUBLIC "-//W3C//DTD SVG 1.1//EN" "http://www.w3.org/Graphics/SVG/1.1/DTD/svg11.dtd">
<svg version="1.1" id="Capa_1" xmlns="http://www.w3.org/2000/svg" xmlns:xlink="http://www.w3.org/1999/xlink" x="0px" y="0px"
	 width="734.4px" height="734.4px" viewBox="0 0 734.4 734.4" style="enable-background:new 0 0 734.4 734.4;" xml:space="preserve"
	>
<path style="fill:#FF731B;" d="M730.6,367.2c0,200.7-162.7,363.4-363.4,363.4C166.5,730.6,3.8,567.9,3.8,367.2
	C3.8,166.5,166.5,3.8,367.2,3.8C567.9,3.8,730.6,166.5,730.6,367.2z"/>
<radialGradient id="SVGID_1_" cx="367.1904" cy="367.1943" r="319.3315" gradientUnits="userSpaceOnUse">
	<stop  offset="0" style="stop-color:#5D0B00"/>
	<stop  offset="1" style="stop-color:#1A140F"/>
</radialGradient>
<path style="fill:url(#SVGID_1_);" d="M686.5,367.2c0,176.4-143,319.3-319.3,319.3S47.9,543.6,47.9,367.2
	c0-176.4,143-319.3,319.3-319.3S686.5,190.8,686.5,367.2z"/>
<path style="fill:#FF731B;" d="M420.7,516.7h-66.6l-10.8-49.4h-67.7l-11.2,49.4h-65.3L274,221h71.9L420.7,516.7z M331.1,414.1
	c-9.6-44-16.8-85.9-21.6-125.6h-0.8c-5.1,40.9-12.2,82.8-21.4,125.6H331.1z"/>
<path style="fill:#FF731B;" d="M448.5,251.8c0-9.4,3.2-17.5,9.5-24.1c6.3-6.6,13.9-10,22.8-10c9,0,16.7,3.3,23.1,10
	c6.3,6.7,9.5,14.7,9.5,24.1c0,9.3-3.2,17.3-9.5,24c-6.3,6.7-14,10.1-23.1,10.1c-8.7,0-16.3-3.4-22.7-10.1
	C451.6,269.1,448.5,261.1,448.5,251.8z M450.1,312.9h61.5v203.8h-61.5V312.9z"/>
</svg>
