<?xml version="1.0" encoding="utf-8"?>
<!-- Generator: Adobe Illustrator 16.0.0, SVG Export Plug-In . SVG Version: 6.00 Build 0)  -->
<!DOCTYPE svg PUBLIC "-//W3C//DTD SVG 1.1//EN" "http://www.w3.org/Graphics/SVG/1.1/DTD/svg11.dtd">
<svg version="1.1" id="Capa_1" xmlns="http://www.w3.org/2000/svg" xmlns:xlink="http://www.w3.org/1999/xlink" x="0px" y="0px"
	 width="734.4px" height="734.4px" viewBox="0 0 734.4 734.4" style="enable-background:new 0 0 734.4 734.4;" xml:space="preserve"
	>
<circle style="fill:#1FD0F6;" cx="367.2" cy="367.2" r="364.7"/>
<g>
	<g>
		<radialGradient id="SVGID_1_" cx="367.1973" cy="367.187" r="320.4451" gradientUnits="userSpaceOnUse">
			<stop  offset="0" style="stop-color:#35324B"/>
			<stop  offset="1" style="stop-color:#0E0C1A"/>
		</radialGradient>
		<path style="fill:url(#SVGID_1_);" d="M687.6,367.2c0,177-143.5,320.4-320.5,320.4c-177,0-320.4-143.5-320.4-320.4
			c0-177,143.5-320.4,320.4-320.4C544.2,46.7,687.6,190.2,687.6,367.2z"/>
	</g>
	<defs>
		<filter id="Adobe_OpacityMaskFilter" filterUnits="userSpaceOnUse" x="46.7" y="46.7" width="640.9" height="640.9">
			
				<feColorMatrix  type="matrix" values="-1 0 0 0 1  0 -1 0 0 1  0 0 -1 0 1  0 0 0 1 0" color-interpolation-filters="sRGB" result="source"/>
		</filter>
	</defs>
	<mask maskUnits="userSpaceOnUse" x="46.7" y="46.7" width="640.9" height="640.9" id="SVGID_2_">
		<g style="filter:url(#Adobe_OpacityMaskFilter);">
			
				<image style="overflow:visible;" width="646" height="646" xlink:href="278A91BB25B4131A.jpg"  transform="matrix(1 0 0 1 44.4434 43.8506)">
			</image>
		</g>
	</mask>
	<g style="opacity:0.61;mask:url(#SVGID_2_);">
		<path style="fill:#010002;" d="M687.6,367.2c0,177-143.5,320.4-320.5,320.4c-177,0-320.4-143.5-320.4-320.4
			c0-177,143.5-320.4,320.4-320.4C544.2,46.7,687.6,190.2,687.6,367.2z"/>
	</g>
</g>
<g>
	<g>
		<path style="fill:#1FD0F6;" d="M204.2,229.7c17.7-3.3,42.1-5.8,75.4-5.8c36.1,0,62.5,7.9,79.8,22.8c16,13.7,26.5,35.7,26.5,61.9
			c0,26.6-8,48.6-23.3,63.5c-19.6,20.3-50.5,29.9-85.4,29.9c-9.2,0-17.6-0.4-24-1.7v105.5h-48.9V229.7z M253.2,360.1
			c6,1.7,14,2.1,24,2.1c36.9,0,59.3-18.7,59.3-51.5c0-31.2-20.8-47.8-54.9-47.8c-13.6,0-23.3,1.2-28.4,2.5V360.1z"/>
	</g>
</g>
<g>
	<path style="fill:#1FD0F6;" d="M401,459c11.2,7.1,32.5,14.5,50.1,14.5c21.6,0,31.3-9.1,31.3-22.4c0-13.7-8-20.8-32.1-29.5
		c-38.1-13.7-54.1-35.3-53.7-59c0-35.7,28.5-63.5,73.8-63.5c21.7,0,40.5,5.8,51.7,12l-9.6,36.1c-8.4-5-24.1-11.6-41.3-11.6
		c-17.6,0-27.2,8.7-27.2,21.2c0,12.9,9.2,19.1,34.1,28.2c35.3,13.3,51.7,32,52.1,61.9c0,36.5-27.6,63.5-79.4,63.5
		c-23.6,0-44.9-6.2-59.3-14.5L401,459z"/>
</g>
</svg>
