<?xml version="1.0" encoding="utf-8"?>
<!-- Generator: Adobe Illustrator 16.0.0, SVG Export Plug-In . SVG Version: 6.00 Build 0)  -->
<!DOCTYPE svg PUBLIC "-//W3C//DTD SVG 1.1//EN" "http://www.w3.org/Graphics/SVG/1.1/DTD/svg11.dtd" [
	<!ENTITY ns_flows "http://ns.adobe.com/Flows/1.0/">
	<!ENTITY ns_extend "http://ns.adobe.com/Extensibility/1.0/">
	<!ENTITY ns_ai "http://ns.adobe.com/AdobeIllustrator/10.0/">
	<!ENTITY ns_graphs "http://ns.adobe.com/Graphs/1.0/">
]>
<svg version="1.1" id="Capa_1" xmlns:x="&ns_extend;" xmlns:i="&ns_ai;" xmlns:graph="&ns_graphs;"
	 xmlns="http://www.w3.org/2000/svg" xmlns:xlink="http://www.w3.org/1999/xlink" xmlns:a="http://ns.adobe.com/AdobeSVGViewerExtensions/3.0/"
	 x="0px" y="0px" width="767.921px" height="768px" viewBox="127.579 0 767.921 768" enable-background="new 127.579 0 767.921 768"
	 xml:space="preserve">
<path fill="#6C7EB7" d="M511.5,11c-205.967,0-373,167.033-373,373c0,205.967,167.033,373,373,373c205.967,0,373-167.033,373-373
	C884.5,178.033,717.467,11,511.5,11z"/>
<g>
	<path fill="#FFFFFF" d="M373.913,307.356h-94.528l-40.877,206.938h48.542l10.219-53.651h45.986
		c43.432,2.556,91.972-33.21,91.972-94.527C435.227,330.35,414.789,309.911,373.913,307.356z M338.146,422.321h-30.658
		l12.773-76.643h33.213c17.883,0,30.657,7.664,30.657,22.994C381.576,412.103,361.139,419.768,338.146,422.321z"/>
	<path id="h" fill="#FFFFFF" d="M427.898,460.643l40.876-206.937h48.542l-10.22,53.65h45.986
		c40.878,2.555,56.205,22.993,51.096,48.541l-17.883,104.745H535.2l17.883-94.527c2.556-12.774,2.556-20.438-15.33-20.438h-38.32
		l-22.993,114.964H427.898z"/>
	<path fill="#FFFFFF" d="M723.254,307.356h-94.527L587.85,514.294h48.542l10.218-53.651h45.987
		c43.431,2.556,91.974-33.21,91.974-94.527C784.57,330.35,764.131,309.911,723.254,307.356z M687.487,422.321H656.83l12.774-76.643
		h33.21c17.886,0,30.66,7.664,30.66,22.994C730.918,412.103,710.479,419.768,687.487,422.321z"/>
</g>
</svg>
